<svg viewBox="0 0 30 30" xmlns="http://www.w3.org/2000/svg"><path d="M15.5 6v4.3A17 17 0 0022 9v1c-1.9.8-4 1.2-6.5 1.2v3.3h9v1h-9v3.3c2.3 0 4.3.4 6.1 1l.4.2v1c-2-.9-4.3-1.3-7-1.3h.5V24h-1v-4.3A17 17 0 008 21v-1c2-.8 4.3-1.3 7-1.3h-.5v-3.2h-9v-1h9v-3.3c-2.5 0-4.6-.4-6.5-1.2V9c1.9.8 4 1.3 6.5 1.3V6h1z" fill="var(--tds-color--grey10, #171a20)"></path><path d="M15 6.3c.6 0 1.1.2 1.6.5.6.5 1 1.1 1.5 1.9.9 1.6 1.4 3.8 1.4 6.3s-.5 4.7-1.4 6.3c-.4.8-1 1.4-1.5 1.9-.5.3-1 .6-1.6.6-.6 0-1.1-.3-1.6-.6-.6-.5-1-1.1-1.5-1.9-.9-1.6-1.4-3.8-1.4-6.3s.5-4.7 1.4-6.3c.4-.8 1-1.4 1.5-1.9.5-.3 1-.5 1.6-.5z" stroke="var(--tds-color--grey10, #171a20)" fill="none"></path><path d="M15 5a10 10 0 110 20 10 10 0 010-20zm0 1.5a8.5 8.5 0 100 17 8.5 8.5 0 000-17z" fill="var(--tds-color--grey10, #171a20)"></path></svg>